HIERARCHY
ROOT reference
{
  OFFSET 0 0 0
  CHANNELS 6 Xposition Yposition Zposition Zrotation Xrotation Yrotation
  JOINT Hips
  {
    OFFSET -0.345581 76.2627 47.4559
    CHANNELS 6 Xposition Yposition Zposition Zrotation Xrotation Yrotation
    JOINT Spine
    {
      OFFSET 0 7.85829 0
      CHANNELS 6 Xposition Yposition Zposition Zrotation Xrotation Yrotation
      JOINT Spine1
      {
        OFFSET 0 25.1384 0
        CHANNELS 6 Xposition Yposition Zposition Zrotation Xrotation Yrotation
        JOINT Neck
        {
          OFFSET 0 25.0351 2.27592
          CHANNELS 6 Xposition Yposition Zposition Zrotation Xrotation Yrotation
          JOINT Head
          {
            OFFSET 0 13.4166 -1.91665
            CHANNELS 6 Xposition Yposition Zposition Zrotation Xrotation Yrotation
            End Site
            {
              OFFSET 0 23.9582 0
            }
          }
        }
        JOINT LeftShoulder
        {
          OFFSET 3.81534 24.0346 -0.234509
          CHANNELS 6 Xposition Yposition Zposition Zrotation Xrotation Yrotation
          JOINT LeftArm
          {
            OFFSET 8.62273 0 0
            CHANNELS 6 Xposition Yposition Zposition Zrotation Xrotation Yrotation
            JOINT LeftForeArm
            {
              OFFSET 31.7064 0 0
              CHANNELS 6 Xposition Yposition Zposition Zrotation Xrotation Yrotation
              JOINT LeftHand
              {
                OFFSET 23.7731 0 0
                CHANNELS 6 Xposition Yposition Zposition Zrotation Xrotation Yrotation
                End Site
                {
                  OFFSET 14.3749 0 0
                }
              }
            }
          }
        }
        JOINT RightShoulder
        {
          OFFSET -3.83608 24.0346 -0.234509
          CHANNELS 6 Xposition Yposition Zposition Zrotation Xrotation Yrotation
          JOINT RightArm
          {
            OFFSET -8.62273 0 0
            CHANNELS 6 Xposition Yposition Zposition Zrotation Xrotation Yrotation
            JOINT RightForeArm
            {
              OFFSET -31.7064 0 0
              CHANNELS 6 Xposition Yposition Zposition Zrotation Xrotation Yrotation
              JOINT RightHand
              {
                OFFSET -23.7731 0 0
                CHANNELS 6 Xposition Yposition Zposition Zrotation Xrotation Yrotation
                End Site
                {
                  OFFSET -14.3749 0 0
                }
              }
            }
          }
        }
      }
    }
    JOINT LeftUpLeg
    {
      OFFSET 9.58328 0 0
      CHANNELS 6 Xposition Yposition Zposition Zrotation Xrotation Yrotation
      JOINT LeftLeg
      {
        OFFSET 0 -36.4535 0
        CHANNELS 6 Xposition Yposition Zposition Zrotation Xrotation Yrotation
        JOINT LeftFoot
        {
          OFFSET 0 -41.4659 0
          CHANNELS 6 Xposition Yposition Zposition Zrotation Xrotation Yrotation
          JOINT LeftToeBase
          {
            OFFSET 0 -6.22913 14.3749
            CHANNELS 6 Xposition Yposition Zposition Zrotation Xrotation Yrotation
            End Site
            {
              OFFSET 0 0 3.83331
            }
          }
        }
      }
    }
    JOINT RightUpLeg
    {
      OFFSET -9.58328 0 0
      CHANNELS 6 Xposition Yposition Zposition Zrotation Xrotation Yrotation
      JOINT RightLeg
      {
        OFFSET 0 -36.4535 0
        CHANNELS 6 Xposition Yposition Zposition Zrotation Xrotation Yrotation
        JOINT RightFoot
        {
          OFFSET 0 -41.4659 0
          CHANNELS 6 Xposition Yposition Zposition Zrotation Xrotation Yrotation
          JOINT RightToeBase
          {
            OFFSET 0 -6.22913 14.3749
            CHANNELS 6 Xposition Yposition Zposition Zrotation Xrotation Yrotation
            End Site
            {
              OFFSET 0 0 3.83331
            }
          }
        }
      }
    }
  }
}
MOTION
Frames:	8
Frame Time:	0.004
0 0 0 0 0 -0 -6.25702 60.3772 -207.083 -0.42099 -1.68502 -7.29186 0 7.85829 2.84217e-014 -13.49 42.2763 8.24275 0 25.1384 0 5.02705 22.9307 1.98659 0 25.0351 2.27592 -2.11505 18.7148 -3.2303 0 13.4166 -1.91665 -4.61179 -24.3815 -5.01301 3.81534 24.0346 -0.234509 -6.72614 12.6569 -20.4959 8.62273 0 1.42109e-014 -13.3259 2.5388 -48.2168 31.7064 0 0 -0.685886 -16.4693 -14.2278 23.7731 0 -1.42109e-014 26.4888 -17.1959 -2.86108 -3.83608 24.0346 -0.234509 1.47497 20.702 30.8851 -8.62273 0 1.42109e-014 3.41166 5.77426 39.6615 -31.7064 0 -1.42109e-014 -6.63604 -20.9713 12.7753 -23.7731 0 1.42109e-014 -28.3543 -18.0098 -9.46827 9.58328 0 0 6.28366 -56.0629 6.39907 0 -36.4535 0 -16.6687 68.9422 12.5633 3.55271e-015 -41.4659 0 19.2723 -19.1051 10.0739 2.22045e-016 -6.22913 14.3749 1.49089e-016 3.18055e-015 -6.95746e-016 -9.58328 0 2.84217e-014 -2.98844 -37.0974 -0.347568 7.10543e-015 -36.4535 0 -167.763 78.1482 173.475 3.55271e-015 -41.4659 1.42109e-014 -9.48238 -14.6931 -13.083 0 -6.22913 14.3749 1.19271e-015 3.18055e-015 -3.97569e-016 
0 0 0 0 0 -0 -6.20533 60.0884 -207.086 -0.271556 -1.59298 -7.29085 0 7.85829 0 -13.7271 42.4587 8.40331 0 25.1384 -2.84217e-014 5.09077 22.8065 2.02204 0 25.0351 2.27592 -1.94594 18.5212 -3.26223 7.10543e-015 13.4166 -1.91665 -4.82154 -24.295 -5.1082 3.81534 24.0346 -0.234509 -6.63091 12.5182 -20.6911 8.62273 -2.84217e-014 0 -13.4241 2.24314 -48.2632 31.7064 0 0 -0.762904 -16.5001 -14.1907 23.7731 0 0 26.2662 -17.2529 -2.96387 -3.83608 24.0346 -0.234509 1.46357 20.4966 30.9059 -8.62273 2.84217e-014 0 3.35315 5.66128 39.6007 -31.7064 -2.84217e-014 0 -6.70231 -20.9226 12.7417 -23.7731 0 0 -28.2002 -17.972 -9.45157 9.58328 0 0 6.11962 -56.6161 6.30676 1.77636e-015 -36.4535 1.42109e-014 -17.3335 69.5239 13.398 3.55271e-015 -41.4659 2.84217e-014 19.3315 -19.3277 10.1226 0 -6.22913 14.3749 -1.49089e-015 3.18055e-015 -3.97569e-016 -9.58328 1.42109e-014 0 -3.08126 -37.2063 -0.184632 0 -36.4535 2.84217e-014 -167.663 77.6018 173.482 -3.55271e-015 -41.4659 -1.42109e-014 -9.60651 -14.5625 -13.2868 7.10543e-015 -6.22913 14.3749 -3.97569e-016 0 1.98785e-015 
0 0 0 0 0 -0 -6.19255 59.7777 -207.045 -0.27436 -1.7058 -7.26043 0 7.85829 0 -13.8537 42.7563 8.51915 0 25.1384 0 5.16613 22.7739 2.03278 0 25.0351 2.27592 -2.0508 18.5443 -3.25205 0 13.4166 -1.91665 -4.68321 -24.489 -5.05986 3.81534 24.0346 -0.234509 -6.58437 12.4023 -20.777 8.62273 0 1.42109e-014 -13.4477 1.9909 -48.3187 31.7064 0 0 -0.839031 -16.5467 -14.1902 23.7731 0 0 26.4042 -17.3136 -2.97144 -3.83608 24.0346 -0.234509 1.3542 20.3622 31.0682 -8.62273 0 0 3.32139 5.37394 39.5427 -31.7064 2.84217e-014 0 -6.60572 -20.7963 12.6612 -23.7731 0 0 -28.2246 -17.8363 -9.53354 9.58328 0 0 6.15128 -56.9493 6.30351 -1.77636e-015 -36.4535 0 -18.0821 70.2048 14.0862 0 -41.4659 0 19.5693 -19.6578 10.3377 -2.22045e-016 -6.22913 14.3749 -3.72721e-016 0 -4.96962e-016 -9.58328 0 0 -3.03066 -37.0366 0.016933 0 -36.4535 -1.42109e-014 -167.995 77.2035 173.705 3.55271e-015 -41.4659 1.42109e-014 -9.68779 -14.4907 -13.2627 0 -6.22913 14.3749 1.98785e-015 6.36111e-015 3.37934e-015 
0 0 0 0 0 -0 -6.14697 59.4713 -207.022 -0.17387 -1.70028 -7.2909 7.10543e-015 7.85829 -2.84217e-014 -14.0641 42.9851 8.66697 0 25.1384 -2.84217e-014 5.20272 22.6588 2.0628 0 25.0351 2.27592 -1.94211 18.6007 -3.30062 0 13.4166 -1.91665 -4.82438 -24.7243 -5.16784 3.81534 24.0346 -0.234509 -6.53849 12.3033 -20.883 8.62273 -2.84217e-014 1.42109e-014 -13.4826 1.71049 -48.355 31.7064 0 0 -0.934987 -16.4801 -14.2312 23.7731 0 1.42109e-014 26.5937 -17.2023 -2.69831 -3.83608 24.0346 -0.234509 1.3121 20.2038 31.2111 -8.62273 0 0 3.24186 5.22817 39.4369 -31.7064 0 7.10543e-015 -6.64247 -20.7296 12.5779 -23.7731 0 -1.42109e-014 -28.0005 -17.7848 -9.54696 9.58328 0 -2.84217e-014 6.12291 -57.373 6.35101 1.77636e-015 -36.4535 0 -18.8167 70.8015 14.6855 0 -41.4659 2.84217e-014 19.996 -19.907 10.6926 2.22045e-016 -6.22913 14.3749 1.39149e-015 1.59028e-015 -0 -9.58328 0 0 -3.08269 -37.0291 0.233316 0 -36.4535 1.42109e-014 -168.313 76.7388 174.099 -3.55271e-015 -41.4659 0 -9.81732 -14.4038 -13.4106 3.55271e-015 -6.22913 14.3749 -9.93923e-016 3.18055e-015 2.18663e-015 
0 0 0 0 0 -0 -6.11025 59.1743 -207.007 -0.087054 -1.68514 -7.29374 0 7.85829 0 -14.2 43.1701 8.75269 0 25.1384 -2.84217e-014 5.20439 22.6423 2.0682 0 25.0351 2.27592 -1.95144 18.4495 -3.29958 -3.55271e-015 13.4166 -1.91665 -4.78215 -24.7536 -5.15048 3.81534 24.0346 -0.234509 -6.47852 12.1312 -21.0068 8.62273 2.84217e-014 1.42109e-014 -13.4736 1.5101 -48.3557 31.7064 2.84217e-014 -1.42109e-014 -0.9093 -16.477 -14.1626 23.7731 -1.42109e-014 0 26.2134 -17.2005 -2.76142 -3.83608 24.0346 -0.234509 1.19093 20.0652 31.3483 -8.62273 0 -1.42109e-014 3.2071 4.99574 39.3857 -31.7064 2.84217e-014 -7.10543e-015 -6.67175 -20.7248 12.5276 -23.7731 0 -2.84217e-014 -27.9119 -17.8017 -9.48611 9.58328 0 0 6.08688 -57.799 6.17739 -1.77636e-015 -36.4535 -7.10543e-015 -20.2747 71.34 16.0782 -3.55271e-015 -41.4659 0 20.3731 -20.1526 11.0907 0 -6.22913 14.3749 1.81391e-015 0 -3.97569e-016 -9.58328 0 0 -3.20321 -36.9755 0.561428 0 -36.4535 0 -169.535 76.3946 175.613 0 -41.4659 1.42109e-014 -10.4114 -14.337 -13.8561 0 -6.22913 14.3749 0 0 -1.78906e-015 
0 0 0 0 0 -0 -6.06847 58.8472 -206.978 0.011464 -1.74595 -7.28583 0 7.85829 0 -14.3678 43.4539 8.86175 0 25.1384 2.84217e-014 5.23605 22.5486 2.06676 0 25.0351 2.27592 -2.00712 18.4416 -3.30666 0 13.4166 -1.91665 -4.73244 -24.9104 -5.14517 3.81534 24.0346 -0.234509 -6.42673 12.0251 -20.9969 8.62273 -2.84217e-014 0 -13.5129 1.27729 -48.5043 31.7064 0 -1.42109e-014 -0.968781 -16.5772 -14.1337 23.7731 1.42109e-014 0 26.0537 -17.358 -3.00888 -3.83608 24.0346 -0.234509 1.08292 19.9201 31.5218 -8.62273 0 -1.42109e-014 3.19513 4.78176 39.2857 -31.7064 0 0 -6.66722 -20.7228 12.3592 -23.7731 0 1.42109e-014 -27.7879 -17.8959 -9.16612 9.58328 0 0 6.01127 -58.1541 5.73333 0 -36.4535 -7.10543e-015 -22.3652 71.7682 18.1625 0 -41.4659 -2.84217e-014 20.8214 -20.5001 11.3735 0 -6.22913 14.3749 -1.46604e-015 0 1.98785e-016 -9.58328 0 -2.84217e-014 -3.30701 -36.9012 0.667458 0 -36.4535 1.42109e-014 -169.718 75.9338 175.558 0 -41.4659 0 -10.6311 -14.202 -13.7751 0 -6.22913 14.3749 -1.59028e-015 0 -7.95139e-016 
0 0 0 0 0 -0 -6.03544 58.5408 -206.969 0.080579 -1.7323 -7.27709 0 7.85829 0 -14.5069 43.6978 8.97559 -3.55271e-015 25.1384 -2.84217e-014 5.23398 22.4086 2.09558 0 25.0351 2.27592 -1.8646 18.363 -3.31102 3.55271e-015 13.4166 -1.91665 -4.86652 -24.9253 -5.19571 3.81534 24.0346 -0.234509 -6.34258 12.0069 -21.1402 8.62273 2.84217e-014 2.84217e-014 -13.5647 0.922687 -48.5271 31.7064 -2.84217e-014 0 -0.995599 -16.4263 -14.1751 23.7731 0 -1.42109e-014 26.3883 -17.1207 -2.56521 -3.83608 24.0346 -0.234509 1.12151 19.7744 31.5975 -8.62273 2.84217e-014 0 3.08382 4.68226 39.1862 -31.7064 0 -7.10543e-015 -6.6681 -20.6105 12.3449 -23.7731 0 0 -27.7949 -17.7333 -9.37045 9.58328 0 -2.84217e-014 5.99983 -58.5824 5.60173 0 -36.4535 -7.10543e-015 -23.6465 72.249 19.3895 3.55271e-015 -41.4659 2.84217e-014 21.1077 -20.7733 11.5714 0 -6.22913 14.3749 -1.98785e-016 0 5.96354e-016 -9.58328 -1.42109e-014 0 -3.33648 -36.8946 0.807193 0 -36.4535 -2.84217e-014 -169.83 75.5259 175.819 7.10543e-015 -41.4659 1.42109e-014 -10.6311 -14.1803 -14.0173 0 -6.22913 14.3749 3.77691e-015 -6.36111e-015 -1.19271e-015 
0 0 0 0 0 -0 -5.98875 58.2039 -206.917 0.230741 -1.86455 -7.26338 0 7.85829 0 -14.7109 43.9384 9.08016 3.55271e-015 25.1384 -2.84217e-014 5.25651 22.4441 2.07509 0 25.0351 2.27592 -1.96914 18.2988 -3.30356 0 13.4166 -1.91665 -4.73365 -25.0011 -5.14494 3.81534 24.0346 -0.234509 -6.27645 11.8947 -21.1824 8.62273 0 0 -13.5309 0.744033 -48.614 31.7064 2.84217e-014 -1.42109e-014 -0.946782 -16.5219 -14.1443 23.7731 -1.42109e-014 0 25.9655 -17.2341 -2.71836 -3.83608 24.0346 -0.234509 0.958434 19.6418 31.7673 -8.62273 0 1.42109e-014 3.12447 4.35852 39.0798 -31.7064 0 0 -6.58738 -20.5707 12.3911 -23.7731 -2.84217e-014 0 -28.1445 -17.6353 -9.51287 9.58328 0 0 5.85743 -58.9205 5.42742 0 -36.4535 0 -25.3541 72.8186 21.167 -3.55271e-015 -41.4659 0 21.3181 -21.0424 11.7136 0 -6.22913 14.3749 -1.71452e-015 0 -1.98785e-016 -9.58328 0 -2.84217e-014 -3.54193 -36.7055 0.74599 0 -36.4535 -1.42109e-014 -169.396 75.095 175.298 0 -41.4659 0 -10.5857 -14.257 -13.8014 0 -6.22913 14.3749 1.19271e-015 6.36111e-015 9.93923e-017 
